<mxfile host="app.diagrams.net" modified="2024-02-09T04:08:02.031Z" agent="Mozilla/5.0 (Windows NT 10.0; Win64; x64) AppleWebKit/537.36 (KHTML, like Gecko) Chrome/121.0.0.0 Safari/537.36" etag="fM0K2GCgUatHy8Ht6Azm" version="23.1.2" type="device">
  <diagram name="Page-1" id="IOXZt8SFSd9cq2F9ggxG">
    <mxGraphModel dx="1584" dy="1540" grid="1" gridSize="10" guides="1" tooltips="1" connect="1" arrows="1" fold="1" page="1" pageScale="1" pageWidth="850" pageHeight="1100" math="0" shadow="0">
      <root>
        <mxCell id="0" />
        <mxCell id="1" parent="0" />
        <mxCell id="TLV3qwpC1txUYtz9FK5R-90" value="" style="rounded=0;whiteSpace=wrap;html=1;" vertex="1" parent="1">
          <mxGeometry x="130" y="220" width="840" height="1220" as="geometry" />
        </mxCell>
        <mxCell id="TLV3qwpC1txUYtz9FK5R-8" style="edgeStyle=orthogonalEdgeStyle;rounded=0;orthogonalLoop=1;jettySize=auto;html=1;exitX=0.5;exitY=1;exitDx=0;exitDy=0;exitPerimeter=0;entryX=0.5;entryY=0;entryDx=0;entryDy=0;" edge="1" parent="1" source="TLV3qwpC1txUYtz9FK5R-1" target="TLV3qwpC1txUYtz9FK5R-4">
          <mxGeometry relative="1" as="geometry" />
        </mxCell>
        <mxCell id="TLV3qwpC1txUYtz9FK5R-1" value="START" style="strokeWidth=2;html=1;shape=mxgraph.flowchart.start_1;whiteSpace=wrap;" vertex="1" parent="1">
          <mxGeometry x="190" y="240" width="100" height="60" as="geometry" />
        </mxCell>
        <mxCell id="TLV3qwpC1txUYtz9FK5R-2" value="&lt;b&gt;INITIALIZE &lt;/b&gt;&lt;br&gt;LCD" style="rounded=1;whiteSpace=wrap;html=1;absoluteArcSize=1;arcSize=14;strokeWidth=2;" vertex="1" parent="1">
          <mxGeometry x="160" y="410" width="160" height="70" as="geometry" />
        </mxCell>
        <mxCell id="TLV3qwpC1txUYtz9FK5R-3" value="&lt;b&gt;IF&lt;/b&gt;&lt;br&gt;DAVBL?" style="strokeWidth=2;html=1;shape=mxgraph.flowchart.decision;whiteSpace=wrap;" vertex="1" parent="1">
          <mxGeometry x="190" y="560" width="100" height="100" as="geometry" />
        </mxCell>
        <mxCell id="TLV3qwpC1txUYtz9FK5R-9" style="edgeStyle=orthogonalEdgeStyle;rounded=0;orthogonalLoop=1;jettySize=auto;html=1;exitX=0.5;exitY=1;exitDx=0;exitDy=0;entryX=0.5;entryY=0;entryDx=0;entryDy=0;" edge="1" parent="1" source="TLV3qwpC1txUYtz9FK5R-4" target="TLV3qwpC1txUYtz9FK5R-2">
          <mxGeometry relative="1" as="geometry" />
        </mxCell>
        <mxCell id="TLV3qwpC1txUYtz9FK5R-4" value="&lt;b&gt;INITIALIZE&lt;/b&gt;&lt;br&gt;characterCount = 0,&lt;br&gt;Port B&amp;nbsp; &amp;amp;&amp;nbsp; C output,&lt;br&gt;Port D Input" style="rounded=1;whiteSpace=wrap;html=1;absoluteArcSize=1;arcSize=14;strokeWidth=2;" vertex="1" parent="1">
          <mxGeometry x="160" y="320" width="160" height="70" as="geometry" />
        </mxCell>
        <mxCell id="TLV3qwpC1txUYtz9FK5R-7" value="" style="verticalLabelPosition=bottom;verticalAlign=top;html=1;shape=mxgraph.flowchart.or;" vertex="1" parent="1">
          <mxGeometry x="225" y="510" width="30" height="30" as="geometry" />
        </mxCell>
        <mxCell id="TLV3qwpC1txUYtz9FK5R-10" style="edgeStyle=orthogonalEdgeStyle;rounded=0;orthogonalLoop=1;jettySize=auto;html=1;exitX=0.5;exitY=1;exitDx=0;exitDy=0;entryX=0.5;entryY=0;entryDx=0;entryDy=0;entryPerimeter=0;" edge="1" parent="1" source="TLV3qwpC1txUYtz9FK5R-2" target="TLV3qwpC1txUYtz9FK5R-7">
          <mxGeometry relative="1" as="geometry" />
        </mxCell>
        <mxCell id="TLV3qwpC1txUYtz9FK5R-11" style="edgeStyle=orthogonalEdgeStyle;rounded=0;orthogonalLoop=1;jettySize=auto;html=1;exitX=0.5;exitY=1;exitDx=0;exitDy=0;exitPerimeter=0;entryX=0.5;entryY=0;entryDx=0;entryDy=0;entryPerimeter=0;" edge="1" parent="1" source="TLV3qwpC1txUYtz9FK5R-7" target="TLV3qwpC1txUYtz9FK5R-3">
          <mxGeometry relative="1" as="geometry" />
        </mxCell>
        <mxCell id="TLV3qwpC1txUYtz9FK5R-21" style="edgeStyle=orthogonalEdgeStyle;rounded=0;orthogonalLoop=1;jettySize=auto;html=1;exitX=0.5;exitY=1;exitDx=0;exitDy=0;entryX=0.5;entryY=0;entryDx=0;entryDy=0;" edge="1" parent="1" source="TLV3qwpC1txUYtz9FK5R-14" target="TLV3qwpC1txUYtz9FK5R-17">
          <mxGeometry relative="1" as="geometry" />
        </mxCell>
        <mxCell id="TLV3qwpC1txUYtz9FK5R-14" value="&lt;b&gt;READ &lt;br&gt;&lt;/b&gt;Keypad Data from Port D" style="rounded=1;whiteSpace=wrap;html=1;absoluteArcSize=1;arcSize=14;strokeWidth=2;" vertex="1" parent="1">
          <mxGeometry x="160" y="700" width="160" height="70" as="geometry" />
        </mxCell>
        <mxCell id="TLV3qwpC1txUYtz9FK5R-15" style="edgeStyle=orthogonalEdgeStyle;rounded=0;orthogonalLoop=1;jettySize=auto;html=1;exitX=0.5;exitY=1;exitDx=0;exitDy=0;exitPerimeter=0;entryX=0.504;entryY=-0.049;entryDx=0;entryDy=0;entryPerimeter=0;" edge="1" parent="1" source="TLV3qwpC1txUYtz9FK5R-3" target="TLV3qwpC1txUYtz9FK5R-14">
          <mxGeometry relative="1" as="geometry" />
        </mxCell>
        <mxCell id="TLV3qwpC1txUYtz9FK5R-16" value="TRUE" style="edgeLabel;html=1;align=center;verticalAlign=middle;resizable=0;points=[];" vertex="1" connectable="0" parent="TLV3qwpC1txUYtz9FK5R-15">
          <mxGeometry x="-0.1684" y="-2" relative="1" as="geometry">
            <mxPoint as="offset" />
          </mxGeometry>
        </mxCell>
        <mxCell id="TLV3qwpC1txUYtz9FK5R-17" value="&lt;b&gt;DECODE&lt;br&gt;&lt;/b&gt;Keypad Data from Port D" style="rounded=1;whiteSpace=wrap;html=1;absoluteArcSize=1;arcSize=14;strokeWidth=2;" vertex="1" parent="1">
          <mxGeometry x="160" y="800" width="160" height="70" as="geometry" />
        </mxCell>
        <mxCell id="TLV3qwpC1txUYtz9FK5R-33" style="edgeStyle=orthogonalEdgeStyle;rounded=0;orthogonalLoop=1;jettySize=auto;html=1;exitX=0.5;exitY=1;exitDx=0;exitDy=0;exitPerimeter=0;entryX=0.5;entryY=0;entryDx=0;entryDy=0;" edge="1" parent="1" source="TLV3qwpC1txUYtz9FK5R-20" target="TLV3qwpC1txUYtz9FK5R-32">
          <mxGeometry relative="1" as="geometry" />
        </mxCell>
        <mxCell id="TLV3qwpC1txUYtz9FK5R-89" value="TRUE&lt;br&gt;" style="edgeLabel;html=1;align=center;verticalAlign=middle;resizable=0;points=[];" vertex="1" connectable="0" parent="TLV3qwpC1txUYtz9FK5R-33">
          <mxGeometry x="-0.2238" y="-3" relative="1" as="geometry">
            <mxPoint as="offset" />
          </mxGeometry>
        </mxCell>
        <mxCell id="TLV3qwpC1txUYtz9FK5R-20" value="&lt;b&gt;IF&lt;/b&gt;&lt;br&gt;Valid Key?" style="strokeWidth=2;html=1;shape=mxgraph.flowchart.decision;whiteSpace=wrap;" vertex="1" parent="1">
          <mxGeometry x="190" y="890" width="100" height="100" as="geometry" />
        </mxCell>
        <mxCell id="TLV3qwpC1txUYtz9FK5R-23" value="" style="verticalLabelPosition=bottom;verticalAlign=top;html=1;shape=mxgraph.flowchart.or;" vertex="1" parent="1">
          <mxGeometry x="920" y="595" width="30" height="30" as="geometry" />
        </mxCell>
        <mxCell id="TLV3qwpC1txUYtz9FK5R-25" style="edgeStyle=orthogonalEdgeStyle;rounded=0;orthogonalLoop=1;jettySize=auto;html=1;exitX=1;exitY=0.5;exitDx=0;exitDy=0;exitPerimeter=0;entryX=0;entryY=0.5;entryDx=0;entryDy=0;entryPerimeter=0;" edge="1" parent="1" source="TLV3qwpC1txUYtz9FK5R-3" target="TLV3qwpC1txUYtz9FK5R-23">
          <mxGeometry relative="1" as="geometry" />
        </mxCell>
        <mxCell id="TLV3qwpC1txUYtz9FK5R-27" value="FALSE" style="edgeLabel;html=1;align=center;verticalAlign=middle;resizable=0;points=[];" vertex="1" connectable="0" parent="TLV3qwpC1txUYtz9FK5R-25">
          <mxGeometry x="-0.1457" y="-1" relative="1" as="geometry">
            <mxPoint x="15" y="-1" as="offset" />
          </mxGeometry>
        </mxCell>
        <mxCell id="TLV3qwpC1txUYtz9FK5R-26" style="edgeStyle=orthogonalEdgeStyle;rounded=0;orthogonalLoop=1;jettySize=auto;html=1;exitX=0.5;exitY=0;exitDx=0;exitDy=0;exitPerimeter=0;entryX=1;entryY=0.5;entryDx=0;entryDy=0;entryPerimeter=0;" edge="1" parent="1" source="TLV3qwpC1txUYtz9FK5R-23" target="TLV3qwpC1txUYtz9FK5R-7">
          <mxGeometry relative="1" as="geometry" />
        </mxCell>
        <mxCell id="TLV3qwpC1txUYtz9FK5R-31" style="edgeStyle=orthogonalEdgeStyle;rounded=0;orthogonalLoop=1;jettySize=auto;html=1;exitX=0.5;exitY=1;exitDx=0;exitDy=0;entryX=0.5;entryY=0;entryDx=0;entryDy=0;entryPerimeter=0;" edge="1" parent="1" source="TLV3qwpC1txUYtz9FK5R-17" target="TLV3qwpC1txUYtz9FK5R-20">
          <mxGeometry relative="1" as="geometry" />
        </mxCell>
        <mxCell id="TLV3qwpC1txUYtz9FK5R-32" value="&lt;b&gt;INCREMENT&lt;br&gt;&lt;/b&gt;Character Count" style="rounded=1;whiteSpace=wrap;html=1;absoluteArcSize=1;arcSize=14;strokeWidth=2;" vertex="1" parent="1">
          <mxGeometry x="160" y="1040" width="160" height="70" as="geometry" />
        </mxCell>
        <mxCell id="TLV3qwpC1txUYtz9FK5R-58" style="edgeStyle=orthogonalEdgeStyle;rounded=0;orthogonalLoop=1;jettySize=auto;html=1;exitX=0.5;exitY=1;exitDx=0;exitDy=0;exitPerimeter=0;entryX=0.5;entryY=0;entryDx=0;entryDy=0;" edge="1" parent="1" source="TLV3qwpC1txUYtz9FK5R-34" target="TLV3qwpC1txUYtz9FK5R-39">
          <mxGeometry relative="1" as="geometry" />
        </mxCell>
        <mxCell id="TLV3qwpC1txUYtz9FK5R-63" value="TRUE" style="edgeLabel;html=1;align=center;verticalAlign=middle;resizable=0;points=[];" vertex="1" connectable="0" parent="TLV3qwpC1txUYtz9FK5R-58">
          <mxGeometry x="-0.16" y="-3" relative="1" as="geometry">
            <mxPoint as="offset" />
          </mxGeometry>
        </mxCell>
        <mxCell id="TLV3qwpC1txUYtz9FK5R-34" value="&lt;b&gt;IF&lt;/b&gt;&lt;br&gt;character&lt;br&gt;Count =&lt;br&gt;20" style="strokeWidth=2;html=1;shape=mxgraph.flowchart.decision;whiteSpace=wrap;" vertex="1" parent="1">
          <mxGeometry x="190" y="1130" width="100" height="100" as="geometry" />
        </mxCell>
        <mxCell id="TLV3qwpC1txUYtz9FK5R-35" style="edgeStyle=orthogonalEdgeStyle;rounded=0;orthogonalLoop=1;jettySize=auto;html=1;exitX=0.5;exitY=1;exitDx=0;exitDy=0;entryX=0.5;entryY=0;entryDx=0;entryDy=0;entryPerimeter=0;" edge="1" parent="1" source="TLV3qwpC1txUYtz9FK5R-32" target="TLV3qwpC1txUYtz9FK5R-34">
          <mxGeometry relative="1" as="geometry" />
        </mxCell>
        <mxCell id="TLV3qwpC1txUYtz9FK5R-60" style="edgeStyle=orthogonalEdgeStyle;rounded=0;orthogonalLoop=1;jettySize=auto;html=1;exitX=0.5;exitY=1;exitDx=0;exitDy=0;exitPerimeter=0;entryX=0.5;entryY=0;entryDx=0;entryDy=0;" edge="1" parent="1" source="TLV3qwpC1txUYtz9FK5R-36" target="TLV3qwpC1txUYtz9FK5R-50">
          <mxGeometry relative="1" as="geometry" />
        </mxCell>
        <mxCell id="TLV3qwpC1txUYtz9FK5R-64" value="TRUE" style="edgeLabel;html=1;align=center;verticalAlign=middle;resizable=0;points=[];" vertex="1" connectable="0" parent="TLV3qwpC1txUYtz9FK5R-60">
          <mxGeometry x="-0.12" y="-1" relative="1" as="geometry">
            <mxPoint as="offset" />
          </mxGeometry>
        </mxCell>
        <mxCell id="TLV3qwpC1txUYtz9FK5R-36" value="&lt;b&gt;IF&lt;/b&gt;&lt;br&gt;character&lt;br&gt;Count =&lt;br&gt;40" style="strokeWidth=2;html=1;shape=mxgraph.flowchart.decision;whiteSpace=wrap;" vertex="1" parent="1">
          <mxGeometry x="370" y="1130" width="100" height="100" as="geometry" />
        </mxCell>
        <mxCell id="TLV3qwpC1txUYtz9FK5R-61" style="edgeStyle=orthogonalEdgeStyle;rounded=0;orthogonalLoop=1;jettySize=auto;html=1;exitX=0.5;exitY=1;exitDx=0;exitDy=0;exitPerimeter=0;entryX=0.5;entryY=0;entryDx=0;entryDy=0;" edge="1" parent="1" source="TLV3qwpC1txUYtz9FK5R-37" target="TLV3qwpC1txUYtz9FK5R-52">
          <mxGeometry relative="1" as="geometry" />
        </mxCell>
        <mxCell id="TLV3qwpC1txUYtz9FK5R-66" value="TRUE" style="edgeLabel;html=1;align=center;verticalAlign=middle;resizable=0;points=[];" vertex="1" connectable="0" parent="TLV3qwpC1txUYtz9FK5R-61">
          <mxGeometry x="-0.24" relative="1" as="geometry">
            <mxPoint as="offset" />
          </mxGeometry>
        </mxCell>
        <mxCell id="TLV3qwpC1txUYtz9FK5R-37" value="&lt;b&gt;IF&lt;/b&gt;&lt;br&gt;character&lt;br&gt;Count =&lt;br&gt;60" style="strokeWidth=2;html=1;shape=mxgraph.flowchart.decision;whiteSpace=wrap;" vertex="1" parent="1">
          <mxGeometry x="551" y="1130" width="100" height="100" as="geometry" />
        </mxCell>
        <mxCell id="TLV3qwpC1txUYtz9FK5R-62" style="edgeStyle=orthogonalEdgeStyle;rounded=0;orthogonalLoop=1;jettySize=auto;html=1;exitX=0.5;exitY=1;exitDx=0;exitDy=0;exitPerimeter=0;entryX=0.5;entryY=0;entryDx=0;entryDy=0;" edge="1" parent="1" source="TLV3qwpC1txUYtz9FK5R-38" target="TLV3qwpC1txUYtz9FK5R-51">
          <mxGeometry relative="1" as="geometry" />
        </mxCell>
        <mxCell id="TLV3qwpC1txUYtz9FK5R-67" value="TRUE" style="edgeLabel;html=1;align=center;verticalAlign=middle;resizable=0;points=[];" vertex="1" connectable="0" parent="TLV3qwpC1txUYtz9FK5R-62">
          <mxGeometry x="-0.12" y="1" relative="1" as="geometry">
            <mxPoint as="offset" />
          </mxGeometry>
        </mxCell>
        <mxCell id="TLV3qwpC1txUYtz9FK5R-38" value="&lt;b&gt;IF&lt;/b&gt;&lt;br&gt;character&lt;br&gt;Count &amp;gt;&lt;br&gt;80" style="strokeWidth=2;html=1;shape=mxgraph.flowchart.decision;whiteSpace=wrap;" vertex="1" parent="1">
          <mxGeometry x="730" y="1130" width="100" height="100" as="geometry" />
        </mxCell>
        <mxCell id="TLV3qwpC1txUYtz9FK5R-39" value="&lt;b&gt;SET&lt;br&gt;&lt;/b&gt;cursor to ROW 2" style="rounded=1;whiteSpace=wrap;html=1;absoluteArcSize=1;arcSize=14;strokeWidth=2;" vertex="1" parent="1">
          <mxGeometry x="160" y="1280" width="160" height="70" as="geometry" />
        </mxCell>
        <mxCell id="TLV3qwpC1txUYtz9FK5R-41" value="" style="verticalLabelPosition=bottom;verticalAlign=top;html=1;shape=mxgraph.flowchart.or;" vertex="1" parent="1">
          <mxGeometry x="225" y="1390" width="30" height="30" as="geometry" />
        </mxCell>
        <mxCell id="TLV3qwpC1txUYtz9FK5R-42" value="" style="verticalLabelPosition=bottom;verticalAlign=top;html=1;shape=mxgraph.flowchart.or;" vertex="1" parent="1">
          <mxGeometry x="920" y="925" width="30" height="30" as="geometry" />
        </mxCell>
        <mxCell id="TLV3qwpC1txUYtz9FK5R-44" style="edgeStyle=orthogonalEdgeStyle;rounded=0;orthogonalLoop=1;jettySize=auto;html=1;exitX=1;exitY=0.5;exitDx=0;exitDy=0;exitPerimeter=0;entryX=0;entryY=0.5;entryDx=0;entryDy=0;entryPerimeter=0;" edge="1" parent="1" source="TLV3qwpC1txUYtz9FK5R-34" target="TLV3qwpC1txUYtz9FK5R-36">
          <mxGeometry relative="1" as="geometry" />
        </mxCell>
        <mxCell id="TLV3qwpC1txUYtz9FK5R-45" value="FALSE" style="edgeLabel;html=1;align=center;verticalAlign=middle;resizable=0;points=[];" vertex="1" connectable="0" parent="TLV3qwpC1txUYtz9FK5R-44">
          <mxGeometry y="-1" relative="1" as="geometry">
            <mxPoint as="offset" />
          </mxGeometry>
        </mxCell>
        <mxCell id="TLV3qwpC1txUYtz9FK5R-46" style="edgeStyle=orthogonalEdgeStyle;rounded=0;orthogonalLoop=1;jettySize=auto;html=1;exitX=1;exitY=0.5;exitDx=0;exitDy=0;exitPerimeter=0;entryX=0;entryY=0.5;entryDx=0;entryDy=0;entryPerimeter=0;" edge="1" parent="1" source="TLV3qwpC1txUYtz9FK5R-36" target="TLV3qwpC1txUYtz9FK5R-37">
          <mxGeometry relative="1" as="geometry" />
        </mxCell>
        <mxCell id="TLV3qwpC1txUYtz9FK5R-48" value="FALSE" style="edgeLabel;html=1;align=center;verticalAlign=middle;resizable=0;points=[];" vertex="1" connectable="0" parent="TLV3qwpC1txUYtz9FK5R-46">
          <mxGeometry x="-0.0333" y="2" relative="1" as="geometry">
            <mxPoint as="offset" />
          </mxGeometry>
        </mxCell>
        <mxCell id="TLV3qwpC1txUYtz9FK5R-47" style="edgeStyle=orthogonalEdgeStyle;rounded=0;orthogonalLoop=1;jettySize=auto;html=1;exitX=1;exitY=0.5;exitDx=0;exitDy=0;exitPerimeter=0;entryX=0;entryY=0.5;entryDx=0;entryDy=0;entryPerimeter=0;" edge="1" parent="1" source="TLV3qwpC1txUYtz9FK5R-37" target="TLV3qwpC1txUYtz9FK5R-38">
          <mxGeometry relative="1" as="geometry" />
        </mxCell>
        <mxCell id="TLV3qwpC1txUYtz9FK5R-49" value="FALSE" style="edgeLabel;html=1;align=center;verticalAlign=middle;resizable=0;points=[];" vertex="1" connectable="0" parent="TLV3qwpC1txUYtz9FK5R-47">
          <mxGeometry x="-0.0333" y="-3" relative="1" as="geometry">
            <mxPoint as="offset" />
          </mxGeometry>
        </mxCell>
        <mxCell id="TLV3qwpC1txUYtz9FK5R-50" value="&lt;b&gt;SET&lt;br&gt;&lt;/b&gt;cursor to ROW 3" style="rounded=1;whiteSpace=wrap;html=1;absoluteArcSize=1;arcSize=14;strokeWidth=2;" vertex="1" parent="1">
          <mxGeometry x="340" y="1280" width="160" height="70" as="geometry" />
        </mxCell>
        <mxCell id="TLV3qwpC1txUYtz9FK5R-51" value="&lt;b&gt;CLEAR&lt;/b&gt;&lt;br&gt;LCD display&amp;nbsp;" style="rounded=1;whiteSpace=wrap;html=1;absoluteArcSize=1;arcSize=14;strokeWidth=2;" vertex="1" parent="1">
          <mxGeometry x="700" y="1280" width="160" height="70" as="geometry" />
        </mxCell>
        <mxCell id="TLV3qwpC1txUYtz9FK5R-52" value="&lt;b&gt;SET&lt;br&gt;&lt;/b&gt;cursor to ROW 4" style="rounded=1;whiteSpace=wrap;html=1;absoluteArcSize=1;arcSize=14;strokeWidth=2;" vertex="1" parent="1">
          <mxGeometry x="521" y="1280" width="160" height="70" as="geometry" />
        </mxCell>
        <mxCell id="TLV3qwpC1txUYtz9FK5R-53" style="edgeStyle=orthogonalEdgeStyle;rounded=0;orthogonalLoop=1;jettySize=auto;html=1;exitX=1;exitY=0.5;exitDx=0;exitDy=0;exitPerimeter=0;entryX=0;entryY=0.5;entryDx=0;entryDy=0;entryPerimeter=0;" edge="1" parent="1" source="TLV3qwpC1txUYtz9FK5R-20" target="TLV3qwpC1txUYtz9FK5R-42">
          <mxGeometry relative="1" as="geometry" />
        </mxCell>
        <mxCell id="TLV3qwpC1txUYtz9FK5R-56" value="FALSE" style="edgeLabel;html=1;align=center;verticalAlign=middle;resizable=0;points=[];" vertex="1" connectable="0" parent="TLV3qwpC1txUYtz9FK5R-53">
          <mxGeometry x="-0.0764" y="1" relative="1" as="geometry">
            <mxPoint as="offset" />
          </mxGeometry>
        </mxCell>
        <mxCell id="TLV3qwpC1txUYtz9FK5R-54" style="edgeStyle=orthogonalEdgeStyle;rounded=0;orthogonalLoop=1;jettySize=auto;html=1;exitX=0.5;exitY=0;exitDx=0;exitDy=0;exitPerimeter=0;entryX=0.5;entryY=1;entryDx=0;entryDy=0;entryPerimeter=0;" edge="1" parent="1" source="TLV3qwpC1txUYtz9FK5R-42" target="TLV3qwpC1txUYtz9FK5R-23">
          <mxGeometry relative="1" as="geometry" />
        </mxCell>
        <mxCell id="TLV3qwpC1txUYtz9FK5R-70" value="" style="verticalLabelPosition=bottom;verticalAlign=top;html=1;shape=mxgraph.flowchart.or;" vertex="1" parent="1">
          <mxGeometry x="405" y="1390" width="30" height="30" as="geometry" />
        </mxCell>
        <mxCell id="TLV3qwpC1txUYtz9FK5R-73" value="" style="verticalLabelPosition=bottom;verticalAlign=top;html=1;shape=mxgraph.flowchart.or;" vertex="1" parent="1">
          <mxGeometry x="586" y="1390" width="30" height="30" as="geometry" />
        </mxCell>
        <mxCell id="TLV3qwpC1txUYtz9FK5R-75" value="" style="verticalLabelPosition=bottom;verticalAlign=top;html=1;shape=mxgraph.flowchart.or;" vertex="1" parent="1">
          <mxGeometry x="765" y="1390" width="30" height="30" as="geometry" />
        </mxCell>
        <mxCell id="TLV3qwpC1txUYtz9FK5R-76" style="edgeStyle=orthogonalEdgeStyle;rounded=0;orthogonalLoop=1;jettySize=auto;html=1;exitX=0.5;exitY=1;exitDx=0;exitDy=0;entryX=0.5;entryY=0;entryDx=0;entryDy=0;entryPerimeter=0;" edge="1" parent="1" source="TLV3qwpC1txUYtz9FK5R-39" target="TLV3qwpC1txUYtz9FK5R-41">
          <mxGeometry relative="1" as="geometry" />
        </mxCell>
        <mxCell id="TLV3qwpC1txUYtz9FK5R-77" style="edgeStyle=orthogonalEdgeStyle;rounded=0;orthogonalLoop=1;jettySize=auto;html=1;exitX=0.5;exitY=1;exitDx=0;exitDy=0;entryX=0.5;entryY=0;entryDx=0;entryDy=0;entryPerimeter=0;" edge="1" parent="1" source="TLV3qwpC1txUYtz9FK5R-50" target="TLV3qwpC1txUYtz9FK5R-70">
          <mxGeometry relative="1" as="geometry" />
        </mxCell>
        <mxCell id="TLV3qwpC1txUYtz9FK5R-78" style="edgeStyle=orthogonalEdgeStyle;rounded=0;orthogonalLoop=1;jettySize=auto;html=1;exitX=0.5;exitY=1;exitDx=0;exitDy=0;entryX=0.5;entryY=0;entryDx=0;entryDy=0;entryPerimeter=0;" edge="1" parent="1" source="TLV3qwpC1txUYtz9FK5R-52" target="TLV3qwpC1txUYtz9FK5R-73">
          <mxGeometry relative="1" as="geometry" />
        </mxCell>
        <mxCell id="TLV3qwpC1txUYtz9FK5R-79" style="edgeStyle=orthogonalEdgeStyle;rounded=0;orthogonalLoop=1;jettySize=auto;html=1;exitX=0.5;exitY=1;exitDx=0;exitDy=0;entryX=0.5;entryY=0;entryDx=0;entryDy=0;entryPerimeter=0;" edge="1" parent="1" source="TLV3qwpC1txUYtz9FK5R-51" target="TLV3qwpC1txUYtz9FK5R-75">
          <mxGeometry relative="1" as="geometry" />
        </mxCell>
        <mxCell id="TLV3qwpC1txUYtz9FK5R-80" style="edgeStyle=orthogonalEdgeStyle;rounded=0;orthogonalLoop=1;jettySize=auto;html=1;exitX=1;exitY=0.5;exitDx=0;exitDy=0;exitPerimeter=0;entryX=0;entryY=0.5;entryDx=0;entryDy=0;entryPerimeter=0;" edge="1" parent="1" source="TLV3qwpC1txUYtz9FK5R-41" target="TLV3qwpC1txUYtz9FK5R-70">
          <mxGeometry relative="1" as="geometry" />
        </mxCell>
        <mxCell id="TLV3qwpC1txUYtz9FK5R-81" style="edgeStyle=orthogonalEdgeStyle;rounded=0;orthogonalLoop=1;jettySize=auto;html=1;exitX=1;exitY=0.5;exitDx=0;exitDy=0;exitPerimeter=0;entryX=0;entryY=0.5;entryDx=0;entryDy=0;entryPerimeter=0;" edge="1" parent="1" source="TLV3qwpC1txUYtz9FK5R-70" target="TLV3qwpC1txUYtz9FK5R-73">
          <mxGeometry relative="1" as="geometry" />
        </mxCell>
        <mxCell id="TLV3qwpC1txUYtz9FK5R-82" style="edgeStyle=orthogonalEdgeStyle;rounded=0;orthogonalLoop=1;jettySize=auto;html=1;exitX=1;exitY=0.5;exitDx=0;exitDy=0;exitPerimeter=0;entryX=0;entryY=0.5;entryDx=0;entryDy=0;entryPerimeter=0;" edge="1" parent="1" source="TLV3qwpC1txUYtz9FK5R-73" target="TLV3qwpC1txUYtz9FK5R-75">
          <mxGeometry relative="1" as="geometry" />
        </mxCell>
        <mxCell id="TLV3qwpC1txUYtz9FK5R-83" value="" style="verticalLabelPosition=bottom;verticalAlign=top;html=1;shape=mxgraph.flowchart.or;" vertex="1" parent="1">
          <mxGeometry x="920" y="1165" width="30" height="30" as="geometry" />
        </mxCell>
        <mxCell id="TLV3qwpC1txUYtz9FK5R-85" style="edgeStyle=orthogonalEdgeStyle;rounded=0;orthogonalLoop=1;jettySize=auto;html=1;exitX=1;exitY=0.5;exitDx=0;exitDy=0;exitPerimeter=0;entryX=0;entryY=0.5;entryDx=0;entryDy=0;entryPerimeter=0;" edge="1" parent="1" source="TLV3qwpC1txUYtz9FK5R-38" target="TLV3qwpC1txUYtz9FK5R-83">
          <mxGeometry relative="1" as="geometry" />
        </mxCell>
        <mxCell id="TLV3qwpC1txUYtz9FK5R-86" value="FALSE" style="edgeLabel;html=1;align=center;verticalAlign=middle;resizable=0;points=[];" vertex="1" connectable="0" parent="TLV3qwpC1txUYtz9FK5R-85">
          <mxGeometry x="0.0222" y="1" relative="1" as="geometry">
            <mxPoint as="offset" />
          </mxGeometry>
        </mxCell>
        <mxCell id="TLV3qwpC1txUYtz9FK5R-87" style="edgeStyle=orthogonalEdgeStyle;rounded=0;orthogonalLoop=1;jettySize=auto;html=1;exitX=1;exitY=0.5;exitDx=0;exitDy=0;exitPerimeter=0;entryX=0.5;entryY=1;entryDx=0;entryDy=0;entryPerimeter=0;" edge="1" parent="1" source="TLV3qwpC1txUYtz9FK5R-75" target="TLV3qwpC1txUYtz9FK5R-83">
          <mxGeometry relative="1" as="geometry" />
        </mxCell>
        <mxCell id="TLV3qwpC1txUYtz9FK5R-88" style="edgeStyle=orthogonalEdgeStyle;rounded=0;orthogonalLoop=1;jettySize=auto;html=1;exitX=0.5;exitY=0;exitDx=0;exitDy=0;exitPerimeter=0;entryX=0.5;entryY=1;entryDx=0;entryDy=0;entryPerimeter=0;" edge="1" parent="1" source="TLV3qwpC1txUYtz9FK5R-83" target="TLV3qwpC1txUYtz9FK5R-42">
          <mxGeometry relative="1" as="geometry" />
        </mxCell>
      </root>
    </mxGraphModel>
  </diagram>
</mxfile>
